<svg width="608" height="118" viewBox="0 0 608 118" fill="none" xmlns="http://www.w3.org/2000/svg">
<path d="M152.21 54.5102L142.89 63.7202C139.62 60.2502 135.86 58.5702 131.4 58.5702C124.17 58.5702 118.62 64.1202 118.62 71.6502C118.62 79.1802 124.26 84.6302 131.4 84.6302C135.86 84.6302 139.62 82.9402 142.89 79.4802L152.21 88.6902C146.56 94.9302 139.62 98.0002 131.4 98.0002C123.67 98.0002 117.13 95.5302 111.78 90.4702C106.53 85.4202 103.85 79.1802 103.85 71.6502C103.85 64.1202 106.53 57.8802 111.78 52.8202C117.13 47.7702 123.67 45.1902 131.4 45.1902C139.62 45.1902 146.56 48.2602 152.21 54.5102Z" fill="#111111"/>
<path d="M157.13 96.7502V30.6802H171.47V54.1002C173.4 49.8602 178.6 47.1602 185.05 47.1602C196.51 47.1602 203.06 54.6702 203.06 67.2902V96.7502H188.71V69.0202C188.71 63.3402 185.72 59.8702 180.43 59.8702C175.13 59.8702 171.47 63.8202 171.47 69.5002V96.7502H157.13Z" fill="#111111"/>
<path fill-rule="evenodd" clip-rule="evenodd" d="M246.98 54.5801V48.2201H261.33V96.7501H246.98V90.4001C245.53 94.6301 239.85 97.6201 232.53 97.6201C225.7 97.6201 219.92 95.2101 215.3 90.4001C210.77 85.4901 208.46 79.5201 208.46 72.4901C208.46 65.4601 210.77 59.4901 215.3 54.6701C219.92 49.7601 225.7 47.3601 232.53 47.3601C239.85 47.3601 245.53 50.3401 246.98 54.5801ZM244.09 81.1501C246.59 78.7501 247.85 75.8601 247.85 72.4901C247.85 69.1201 246.59 66.2301 244.09 63.9201C241.68 61.5101 238.7 60.3501 235.13 60.3501C231.67 60.3501 228.78 61.5101 226.37 63.9201C223.96 66.2301 222.81 69.1201 222.81 72.4901C222.81 75.8601 223.96 78.7501 226.37 81.1501C228.78 83.4601 231.67 84.6201 235.13 84.6201C238.7 84.6201 241.68 83.4601 244.09 81.1501Z" fill="#111111"/>
<path d="M269.16 96.7502V30.6802H283.51V96.7502H269.16Z" fill="#111111"/>
<path d="M290.28 96.7502V30.6802H304.62V96.7502H290.28Z" fill="#111111"/>
<path fill-rule="evenodd" clip-rule="evenodd" d="M310.4 72.3902C310.4 64.7802 312.9 58.6202 317.81 54.0002C322.72 49.2802 329.08 46.9702 336.69 46.9702C344.1 46.9702 350.07 49.3802 354.69 54.1002C359.32 58.8102 361.63 64.5902 361.63 71.6202C361.63 73.2602 361.53 74.8002 361.43 76.2402H324.75C325.04 82.0202 330.04 85.7802 337.65 85.7802C342.18 85.7802 346.12 84.2302 349.49 81.0602L357.87 89.0502C352.19 94.9202 345.16 97.9102 336.98 97.9102C328.98 97.9102 322.63 95.6002 317.72 91.0702C312.81 86.4502 310.4 80.3802 310.4 72.7802V72.3902ZM347.18 66.9002C347.18 62.3802 342.46 58.8102 336.69 58.8102C330.43 58.8102 325.32 62.3802 324.94 66.9002H347.18Z" fill="#111111"/>
<path d="M367.31 96.7502V48.2202H381.66V54.2902C383.68 50.0502 389.17 47.1602 395.82 47.1602C407.66 47.1602 414.4 54.6702 414.4 67.2902V96.7502H400.05V69.0202C400.05 63.3402 396.88 59.8702 391.19 59.8702C385.71 59.8702 381.66 63.8202 381.66 69.5002V96.7502H367.31Z" fill="#111111"/>
<path fill-rule="evenodd" clip-rule="evenodd" d="M426.76 54.6701C431.38 49.7601 437.16 47.3601 443.99 47.3601C451.31 47.3601 456.86 50.7401 458.44 54.5801V48.2201H472.78V88.6601C472.78 99.9301 470.95 107.25 464.31 112.35C459.59 116.11 453.72 117.94 446.69 117.94C437.25 117.94 429.36 115.63 422.91 111.1L429.74 100.7C434.65 103.78 439.56 105.32 444.67 105.32C448.81 105.32 452.18 104.46 454.58 102.82C457.38 100.89 458.82 97.3301 458.82 92.2301V91.1701C456.8 94.6301 451.02 97.0401 443.99 97.0401C437.16 97.0401 431.38 94.7301 426.76 90.0101C422.23 85.2901 419.92 79.4201 419.92 72.4901C419.92 65.4601 422.23 59.4901 426.76 54.6701ZM437.83 80.9601C440.24 83.2701 443.13 84.4301 446.59 84.4301C450.16 84.4301 453.14 83.2701 455.55 80.9601C458.05 78.6501 459.3 75.8601 459.3 72.4901C459.3 69.1201 458.05 66.2301 455.55 63.9201C453.14 61.5101 450.16 60.3501 446.59 60.3501C443.13 60.3501 440.24 61.5101 437.83 63.9201C435.42 66.2301 434.27 69.1201 434.27 72.4901C434.27 75.8601 435.42 78.6501 437.83 80.9601Z" fill="#111111"/>
<path fill-rule="evenodd" clip-rule="evenodd" d="M477.93 72.3902C477.93 64.7802 480.43 58.6202 485.35 54.0002C490.26 49.2802 496.61 46.9702 504.22 46.9702C511.63 46.9702 517.6 49.3802 522.22 54.1002C526.85 58.8102 529.16 64.5902 529.16 71.6202C529.16 73.2602 529.06 74.8002 528.96 76.2402H492.28C492.57 82.0202 497.57 85.7802 505.18 85.7802C509.71 85.7802 513.65 84.2302 517.02 81.0602L525.4 89.0502C519.72 94.9202 512.69 97.9102 504.51 97.9102C496.51 97.9102 490.16 95.6002 485.25 91.0702C480.34 86.4502 477.93 80.3802 477.93 72.7802V72.3902ZM514.71 66.9002C514.71 62.3802 510 58.8102 504.22 58.8102C497.96 58.8102 492.85 62.3802 492.47 66.9002H514.71Z" fill="#111111"/>
<path d="M534.66 96.7502V48.2202H549V54.8702C551.22 49.9502 556.42 47.1602 563.06 47.1602C564.03 47.1602 565.28 47.2602 566.82 47.4502V60.9302C565.37 60.6402 563.74 60.4502 562 60.4502C553.82 60.4502 549 65.0702 549 73.0702V96.7502H534.66Z" fill="#111111"/>
<path d="M573.45 80.5803C576.15 83.7503 581.25 85.8703 586.74 85.8703C591.65 85.8703 594.06 84.5203 594.06 81.9203C594.06 80.9603 593.48 80.1903 592.42 79.6103C591.36 79.0303 589.43 78.3603 586.55 77.6903C583.66 77.0103 581.44 76.3403 580 75.8603C572.58 73.2603 568.83 68.8303 568.83 62.3803C568.83 57.4703 570.66 53.6103 574.32 50.9203C577.98 48.1303 582.41 46.7803 587.7 46.7803C594.54 46.7803 600.03 48.9003 604.36 53.0403L597.52 62.4703C594.92 60.0703 591.46 58.9103 587.32 58.9103C584.24 58.9103 582.5 60.1603 582.5 61.9903C582.5 63.2403 582.98 63.9203 584.52 64.5903C586.35 65.3603 590.4 66.0403 595.79 67.9603C603.78 70.6603 607.73 75.2803 607.73 81.7303C607.73 91.6503 600.61 98.1003 586.35 98.1003C576.92 98.1003 569.89 95.2103 565.17 89.4403L573.45 80.5803Z" fill="#111111"/>
<path d="M99.42 0.0600586L97.28 18.0401L67.72 23.7001C66.92 23.8601 66.31 24.5101 66.21 25.3201L65.74 29.3501C65.64 30.1601 65.03 30.8201 64.23 30.9701L7.16998 41.9301L8.96999 26.7501C9.11999 25.4901 10.07 24.4701 11.32 24.2301L66.26 13.6801C67.06 13.5201 67.67 12.8701 67.77 12.0601L68.33 7.35006C68.42 6.54006 69.03 5.88006 69.83 5.73006L99.42 0.0600586Z" fill="url(#paint0_linear_134_364)"/>
<path d="M96.03 28.3301L93.88 46.3101L64.32 51.9701C63.52 52.1201 62.91 52.7801 62.82 53.5901L62.34 57.6201C62.24 58.4301 61.64 59.0801 60.83 59.2401L3.76999 70.1901L5.81999 52.8901L62.87 41.9401C63.67 41.7901 64.28 41.1301 64.37 40.3301L64.93 35.6101C65.03 34.8001 65.64 34.1501 66.44 34.0001L96.03 28.3301Z" fill="url(#paint1_linear_134_364)"/>
<path d="M92.52 56.5901L90.63 72.4501C90.48 73.7201 89.53 74.7401 88.28 74.9801L60.82 80.2401C60.02 80.3901 59.41 81.0401 59.31 81.8501L58.84 85.8901C58.74 86.6901 58.13 87.3501 57.33 87.5001L0.269989 98.4601L2.31999 81.1601L59.37 70.2101C60.17 70.0501 60.77 69.4001 60.87 68.5901L61.43 63.8801C61.53 63.0701 62.13 62.4201 62.93 62.2601L92.52 56.5901Z" fill="url(#paint2_linear_134_364)"/>
<defs>
<linearGradient id="paint0_linear_134_364" x1="77.252" y1="-43.4799" x2="147.174" y2="80.9691" gradientUnits="userSpaceOnUse">
<stop stop-color="#FF504C"/>
<stop offset="1" stop-color="#FF4467"/>
</linearGradient>
<linearGradient id="paint1_linear_134_364" x1="62.599" y1="-35.2469" x2="132.521" y2="89.2011" gradientUnits="userSpaceOnUse">
<stop stop-color="#FF504C"/>
<stop offset="1" stop-color="#FF4467"/>
</linearGradient>
<linearGradient id="paint2_linear_134_364" x1="47.866" y1="-26.9689" x2="117.788" y2="97.4791" gradientUnits="userSpaceOnUse">
<stop stop-color="#FF504C"/>
<stop offset="1" stop-color="#FF4467"/>
</linearGradient>
</defs>
</svg>
